<mxfile host="app.diagrams.net" modified="2023-12-21T07:34:26.801Z" agent="Mozilla/5.0 (Windows NT 10.0; Win64; x64) AppleWebKit/537.36 (KHTML, like Gecko) Chrome/120.0.0.0 Safari/537.36" etag="sLuy5S_zKUsY-WiAhPE7" version="22.1.11" type="github" pages="4">
  <diagram id="bdb5152c-0a66-c973-8c05-188d29792f79" name="SD User Habit Checkin">
    <mxGraphModel dx="1399" dy="774" grid="1" gridSize="10" guides="1" tooltips="1" connect="1" arrows="1" fold="1" page="1" pageScale="1" pageWidth="827" pageHeight="1169" math="0" shadow="0">
      <root>
        <mxCell id="0" />
        <mxCell id="1" parent="0" />
        <mxCell id="eWfQPedU5hzw5fTzZSwC-1" value="User" style="shape=umlActor;verticalLabelPosition=bottom;verticalAlign=top;html=1;" vertex="1" parent="1">
          <mxGeometry x="110" y="60" width="30" height="60" as="geometry" />
        </mxCell>
        <mxCell id="eWfQPedU5hzw5fTzZSwC-2" value="Client Interface" style="whiteSpace=wrap;html=1;aspect=fixed;" vertex="1" parent="1">
          <mxGeometry x="230" y="50" width="80" height="80" as="geometry" />
        </mxCell>
        <mxCell id="eWfQPedU5hzw5fTzZSwC-3" value="Application Server" style="whiteSpace=wrap;html=1;aspect=fixed;" vertex="1" parent="1">
          <mxGeometry x="414" y="50" width="80" height="80" as="geometry" />
        </mxCell>
        <mxCell id="eWfQPedU5hzw5fTzZSwC-4" value="Databases" style="whiteSpace=wrap;html=1;aspect=fixed;" vertex="1" parent="1">
          <mxGeometry x="600" y="50" width="80" height="80" as="geometry" />
        </mxCell>
      </root>
    </mxGraphModel>
  </diagram>
  <diagram id="c7e31d6c-8c93-e1e8-7283-455b5fcfa418" name="displayHabitHistory">
    <mxGraphModel pageWidth="850" pageHeight="1100" fold="1" pageScale="1" math="0" shadow="0">
      <root>
        <mxCell id="0" />
        <mxCell id="1" parent="0" />
        <mxCell id="2750c62718d928d1-2" value="SD displayHabitHistory" style="shape=umlFrame;whiteSpace=wrap;html=1;strokeColor=#000066;fillColor=#FF8000;fontFamily=Tahoma;fontSize=14;fontColor=#000066;align=center;width=160;height=40;" vertex="1" parent="1">
          <mxGeometry x="39" y="38" width="551" height="344" as="geometry" />
        </mxCell>
        <mxCell id="2750c62718d928d1-1" value="" style="shape=umlLifeline;participant=umlActor;perimeter=lifelinePerimeter;whiteSpace=wrap;html=1;container=1;collapsible=0;recursiveResize=0;verticalAlign=top;spacingTop=36;labelBackgroundColor=#ffffff;outlineConnect=0;strokeColor=#000066;fillColor=#FF8000;fontFamily=Tahoma;fontSize=14;fontColor=#000066;" vertex="1" parent="1">
          <mxGeometry x="99" y="138" width="20" height="219" as="geometry" />
        </mxCell>
        <mxCell id="2750c62718d928d1-4" value="User: Person" style="text;html=1;resizable=0;points=[];autosize=1;align=center;verticalAlign=top;spacingTop=-4;fontSize=14;fontFamily=Tahoma;fontColor=#000066;" vertex="1" parent="1">
          <mxGeometry x="90" y="97" width="90" height="20" as="geometry" />
        </mxCell>
        <mxCell id="2750c62718d928d1-5" value="" style="shape=umlLifeline;participant=umlControl;perimeter=lifelinePerimeter;whiteSpace=wrap;html=1;container=1;collapsible=0;recursiveResize=0;verticalAlign=top;spacingTop=36;labelBackgroundColor=#ffffff;outlineConnect=0;strokeColor=#000066;fillColor=#FF8000;fontFamily=Tahoma;fontSize=14;fontColor=#000066;" vertex="1" parent="1">
          <mxGeometry x="209" y="134" width="40" height="223" as="geometry" />
        </mxCell>
        <mxCell id="2750c62718d928d1-3" value="" style="html=1;points=[];perimeter=orthogonalPerimeter;strokeColor=#000066;fillColor=#FF8000;fontFamily=Tahoma;fontSize=10;fontColor=#000066;align=left;" vertex="1" parent="2750c62718d928d1-5">
          <mxGeometry x="15" y="73" width="10" height="137" as="geometry" />
        </mxCell>
        <mxCell id="2750c62718d928d1-11" value="" style="html=1;points=[];perimeter=orthogonalPerimeter;strokeColor=#000066;fillColor=#FF8000;fontFamily=Tahoma;fontSize=10;fontColor=#000066;align=left;" vertex="1" parent="2750c62718d928d1-5">
          <mxGeometry x="20" y="113" width="10" height="40" as="geometry" />
        </mxCell>
        <mxCell id="2750c62718d928d1-12" value="getHabitCheckinID(Habit.HabitHistory.habitCheckins[x])" style="edgeStyle=orthogonalEdgeStyle;html=1;align=left;spacingLeft=2;endArrow=block;rounded=0;strokeColor=#FF8000;fontFamily=Tahoma;fontSize=10;fontColor=#000066;exitX=1.1;exitY=0.1;exitPerimeter=0;fillColor=#ffffff;" edge="1" source="2750c62718d928d1-11" target="2750c62718d928d1-11" parent="2750c62718d928d1-5">
          <mxGeometry relative="1" as="geometry">
            <mxPoint x="25" y="93" as="sourcePoint" />
            <Array as="points">
              <mxPoint x="50" y="117" />
              <mxPoint x="50" y="133" />
            </Array>
          </mxGeometry>
        </mxCell>
        <mxCell id="2750c62718d928d1-15" value="&lt;div style=&quot;text-align: center&quot;&gt;&lt;span&gt;Habit Tracker&amp;nbsp;&lt;/span&gt;&lt;/div&gt;&lt;div style=&quot;text-align: center&quot;&gt;app UI&lt;/div&gt;" style="text;html=1;resizable=0;points=[];autosize=1;align=left;verticalAlign=top;spacingTop=-4;fontSize=14;fontFamily=Tahoma;fontColor=#000066;" vertex="1" parent="1">
          <mxGeometry x="185" y="97" width="100" height="40" as="geometry" />
        </mxCell>
        <mxCell id="2750c62718d928d1-36" value="&lt;div style=&quot;text-align: center&quot;&gt;Data store&lt;/div&gt;" style="text;html=1;resizable=0;points=[];autosize=1;align=center;verticalAlign=top;spacingTop=-4;fontSize=14;fontFamily=Tahoma;fontColor=#000066;" vertex="1" parent="1">
          <mxGeometry x="479" y="97" width="80" height="20" as="geometry" />
        </mxCell>
        <mxCell id="2750c62718d928d1-6" value="view habit history" style="html=1;verticalAlign=bottom;endArrow=block;entryX=0;entryY=0;strokeColor=#FF8000;fontFamily=Tahoma;fontSize=10;fontColor=#000066;" edge="1" source="2750c62718d928d1-1" target="2750c62718d928d1-3" parent="1">
          <mxGeometry relative="1" as="geometry">
            <mxPoint x="154" y="207" as="sourcePoint" />
          </mxGeometry>
        </mxCell>
        <mxCell id="2750c62718d928d1-7" value="" style="html=1;verticalAlign=bottom;endArrow=open;dashed=1;endSize=8;exitX=0;exitY=0.95;strokeColor=#FF8000;fontFamily=Tahoma;fontSize=10;fontColor=#000066;" edge="1" source="2750c62718d928d1-3" target="2750c62718d928d1-1" parent="1">
          <mxGeometry relative="1" as="geometry">
            <mxPoint x="149" y="337" as="targetPoint" />
          </mxGeometry>
        </mxCell>
        <mxCell id="2750c62718d928d1-9" value="displayCheckin(habitCheckinID)" style="html=1;verticalAlign=bottom;endArrow=block;entryX=0;entryY=0;strokeColor=#FF8000;fontFamily=Tahoma;fontSize=10;fontColor=#000066;" edge="1" source="2750c62718d928d1-3" target="2750c62718d928d1-8" parent="1">
          <mxGeometry relative="1" as="geometry">
            <mxPoint x="234" y="747" as="sourcePoint" />
          </mxGeometry>
        </mxCell>
        <mxCell id="2750c62718d928d1-10" value="return" style="html=1;verticalAlign=bottom;endArrow=open;dashed=1;endSize=8;exitX=0;exitY=0.95;strokeColor=#FF8000;fontFamily=Tahoma;fontSize=10;fontColor=#000066;" edge="1" source="2750c62718d928d1-8" target="2750c62718d928d1-3" parent="1">
          <mxGeometry relative="1" as="geometry">
            <mxPoint x="234" y="823" as="targetPoint" />
          </mxGeometry>
        </mxCell>
        <mxCell id="2750c62718d928d1-16" value="habitCheckins[]" style="text;html=1;resizable=0;points=[];autosize=1;align=left;verticalAlign=top;spacingTop=-4;fontSize=10;fontFamily=Tahoma;fontColor=#000066;" vertex="1" parent="1">
          <mxGeometry x="259" y="222" width="80" height="10" as="geometry" />
        </mxCell>
        <mxCell id="2750c62718d928d1-20" value="" style="shape=umlLifeline;participant=umlBoundary;perimeter=lifelinePerimeter;whiteSpace=wrap;html=1;container=1;collapsible=0;recursiveResize=0;verticalAlign=top;spacingTop=36;labelBackgroundColor=#ffffff;outlineConnect=0;fontFamily=Tahoma;fontSize=14;fontColor=#000066;align=center;strokeColor=#000066;fillColor=#FF8000;" vertex="1" parent="1">
          <mxGeometry x="500" y="140" width="46" height="217" as="geometry" />
        </mxCell>
        <mxCell id="2750c62718d928d1-8" value="" style="html=1;points=[];perimeter=orthogonalPerimeter;strokeColor=#000066;fillColor=#FF8000;fontFamily=Tahoma;fontSize=10;fontColor=#000066;align=left;" vertex="1" parent="2750c62718d928d1-20">
          <mxGeometry x="18" y="157" width="10" height="20" as="geometry" />
        </mxCell>
        <mxCell id="2750c62718d928d1-14" value="loop" style="shape=umlFrame;whiteSpace=wrap;html=1;strokeColor=#000066;fillColor=#FF8000;fontFamily=Tahoma;fontSize=10;fontColor=#000066;align=center;width=50;height=20;" vertex="1" parent="1">
          <mxGeometry x="209" y="222" width="330" height="105" as="geometry" />
        </mxCell>
      </root>
    </mxGraphModel>
  </diagram>
  <diagram id="42e40e81-9cd8-ddaa-e727-b1908e2c7c93" name="SD checkin">
    <mxGraphModel pageWidth="850" pageHeight="1100" fold="1" pageScale="1" math="0" shadow="0">
      <root>
        <mxCell id="0" />
        <mxCell id="1" parent="0" />
        <mxCell id="2750c62718d928d1-19" value="&lt;font style=&quot;font-size: 14px&quot;&gt;SD checkin&lt;/font&gt;" style="shape=umlFrame;whiteSpace=wrap;html=1;strokeColor=#000066;fillColor=#FF8000;fontFamily=Tahoma;fontSize=10;fontColor=#000066;align=center;width=100;height=30;" vertex="1" parent="1">
          <mxGeometry x="40" y="40" width="640" height="501" as="geometry" />
        </mxCell>
        <mxCell id="2750c62718d928d1-1" value="" style="shape=umlLifeline;participant=umlActor;perimeter=lifelinePerimeter;whiteSpace=wrap;html=1;container=1;collapsible=0;recursiveResize=0;verticalAlign=top;spacingTop=36;labelBackgroundColor=#ffffff;outlineConnect=0;strokeColor=#000066;fillColor=#FF8000;fontFamily=Tahoma;fontSize=14;fontColor=#000066;" vertex="1" parent="1">
          <mxGeometry x="89" y="122" width="20" height="399" as="geometry" />
        </mxCell>
        <mxCell id="2750c62718d928d1-14" value="" style="html=1;points=[];perimeter=orthogonalPerimeter;strokeColor=#000066;fillColor=#FF8000;fontFamily=Tahoma;fontSize=10;fontColor=#000066;align=center;" vertex="1" parent="2750c62718d928d1-1">
          <mxGeometry x="5" y="143" width="10" height="24" as="geometry" />
        </mxCell>
        <mxCell id="2750c62718d928d1-2" value="User: Person" style="text;html=1;resizable=0;points=[];autosize=1;align=center;verticalAlign=top;spacingTop=-4;fontSize=14;fontFamily=Tahoma;fontColor=#000066;" vertex="1" parent="1">
          <mxGeometry x="80" y="81" width="90" height="20" as="geometry" />
        </mxCell>
        <mxCell id="2750c62718d928d1-3" value="" style="shape=umlLifeline;participant=umlControl;perimeter=lifelinePerimeter;whiteSpace=wrap;html=1;container=1;collapsible=0;recursiveResize=0;verticalAlign=top;spacingTop=36;labelBackgroundColor=#ffffff;outlineConnect=0;strokeColor=#000066;fillColor=#FF8000;fontFamily=Tahoma;fontSize=14;fontColor=#000066;" vertex="1" parent="1">
          <mxGeometry x="199" y="118" width="40" height="403" as="geometry" />
        </mxCell>
        <mxCell id="2750c62718d928d1-11" value="" style="html=1;points=[];perimeter=orthogonalPerimeter;strokeColor=#000066;fillColor=#FF8000;fontFamily=Tahoma;fontSize=14;fontColor=#000066;align=center;" vertex="1" parent="2750c62718d928d1-3">
          <mxGeometry x="15" y="83" width="10" height="287" as="geometry" />
        </mxCell>
        <mxCell id="2750c62718d928d1-17" value="" style="html=1;points=[];perimeter=orthogonalPerimeter;strokeColor=#000066;fillColor=#FF8000;fontFamily=Tahoma;fontSize=10;fontColor=#000066;align=center;" vertex="1" parent="2750c62718d928d1-3">
          <mxGeometry x="20" y="113" width="10" height="67" as="geometry" />
        </mxCell>
        <mxCell id="2750c62718d928d1-18" value="newCheckin()" style="edgeStyle=orthogonalEdgeStyle;html=1;align=left;spacingLeft=2;endArrow=block;rounded=0;strokeColor=#FF8000;fontFamily=Tahoma;fontSize=10;fontColor=#000066;exitX=1.1;exitY=0.025;exitPerimeter=0;entryX=1;entryY=0.957;entryPerimeter=0;" edge="1" source="2750c62718d928d1-17" target="2750c62718d928d1-17" parent="2750c62718d928d1-3">
          <mxGeometry relative="1" as="geometry">
            <mxPoint x="25" y="93" as="sourcePoint" />
            <Array as="points">
              <mxPoint x="31" y="114" />
              <mxPoint x="50" y="114" />
              <mxPoint x="50" y="177" />
            </Array>
          </mxGeometry>
        </mxCell>
        <mxCell id="2750c62718d928d1-4" value="&lt;div style=&quot;text-align: center&quot;&gt;&lt;span&gt;Habit Tracker&amp;nbsp;&lt;/span&gt;&lt;/div&gt;&lt;div style=&quot;text-align: center&quot;&gt;app UI&lt;/div&gt;" style="text;html=1;resizable=0;points=[];autosize=1;align=left;verticalAlign=top;spacingTop=-4;fontSize=14;fontFamily=Tahoma;fontColor=#000066;" vertex="1" parent="1">
          <mxGeometry x="175" y="81" width="100" height="40" as="geometry" />
        </mxCell>
        <mxCell id="2750c62718d928d1-5" value="" style="shape=umlLifeline;participant=umlEntity;perimeter=lifelinePerimeter;whiteSpace=wrap;html=1;container=1;collapsible=0;recursiveResize=0;verticalAlign=top;spacingTop=36;labelBackgroundColor=#ffffff;outlineConnect=0;fontFamily=Tahoma;fontSize=14;fontColor=#000066;align=center;strokeColor=#000066;fillColor=#FF8000;" vertex="1" parent="1">
          <mxGeometry x="480" y="120" width="44" height="401" as="geometry" />
        </mxCell>
        <mxCell id="2750c62718d928d1-6" value="Authentication&amp;nbsp;&lt;div&gt;Service&lt;/div&gt;" style="text;html=1;resizable=0;points=[];autosize=1;align=center;verticalAlign=top;spacingTop=-4;fontSize=14;fontFamily=Tahoma;fontColor=#000066;" vertex="1" parent="1">
          <mxGeometry x="441" y="81" width="110" height="40" as="geometry" />
        </mxCell>
        <mxCell id="2750c62718d928d1-7" value="" style="shape=umlLifeline;participant=umlBoundary;perimeter=lifelinePerimeter;whiteSpace=wrap;html=1;container=1;collapsible=0;recursiveResize=0;verticalAlign=top;spacingTop=36;labelBackgroundColor=#ffffff;outlineConnect=0;fontFamily=Tahoma;fontSize=14;fontColor=#000066;align=center;strokeColor=#000066;fillColor=#FF8000;" vertex="1" parent="1">
          <mxGeometry x="350" y="120" width="49" height="401" as="geometry" />
        </mxCell>
        <mxCell id="2750c62718d928d1-20" value="" style="html=1;points=[];perimeter=orthogonalPerimeter;strokeColor=#000066;fillColor=#FF8000;fontFamily=Tahoma;fontSize=10;fontColor=#000066;align=center;" vertex="1" parent="2750c62718d928d1-7">
          <mxGeometry x="20" y="222" width="10" height="19" as="geometry" />
        </mxCell>
        <mxCell id="2750c62718d928d1-8" value="&lt;div style=&quot;text-align: center&quot;&gt;Data store&lt;/div&gt;" style="text;html=1;resizable=0;points=[];autosize=1;align=center;verticalAlign=top;spacingTop=-4;fontSize=14;fontFamily=Tahoma;fontColor=#000066;" vertex="1" parent="1">
          <mxGeometry x="332" y="81" width="80" height="20" as="geometry" />
        </mxCell>
        <mxCell id="2750c62718d928d1-9" value="" style="shape=umlLifeline;participant=umlActor;perimeter=lifelinePerimeter;whiteSpace=wrap;html=1;container=1;collapsible=0;recursiveResize=0;verticalAlign=top;spacingTop=36;labelBackgroundColor=#ffffff;outlineConnect=0;strokeColor=#000066;fillColor=#FF8000;fontFamily=Tahoma;fontSize=14;fontColor=#000066;align=center;" vertex="1" parent="1">
          <mxGeometry x="591" y="122" width="20" height="399" as="geometry" />
        </mxCell>
        <mxCell id="2750c62718d928d1-23" value="" style="html=1;points=[];perimeter=orthogonalPerimeter;strokeColor=#000066;fillColor=#FF8000;fontFamily=Tahoma;fontSize=10;fontColor=#000066;align=center;" vertex="1" parent="2750c62718d928d1-9">
          <mxGeometry x="5" y="303" width="10" height="11" as="geometry" />
        </mxCell>
        <mxCell id="2750c62718d928d1-10" value="&lt;div style=&quot;text-align: center&quot;&gt;&lt;span&gt;Coach: Person&lt;/span&gt;&lt;/div&gt;" style="text;html=1;resizable=0;points=[];autosize=1;align=left;verticalAlign=top;spacingTop=-4;fontSize=14;fontFamily=Tahoma;fontColor=#000066;" vertex="1" parent="1">
          <mxGeometry x="551" y="81" width="100" height="20" as="geometry" />
        </mxCell>
        <mxCell id="2750c62718d928d1-12" value="&lt;font style=&quot;font-size: 10px;&quot;&gt;habit checkin&lt;/font&gt;" style="html=1;verticalAlign=bottom;endArrow=block;entryX=0;entryY=0;strokeColor=#FF8000;fontFamily=Tahoma;fontSize=10;fontColor=#000066;" edge="1" source="2750c62718d928d1-1" target="2750c62718d928d1-11" parent="1">
          <mxGeometry relative="1" as="geometry">
            <mxPoint x="144" y="201" as="sourcePoint" />
          </mxGeometry>
        </mxCell>
        <mxCell id="2750c62718d928d1-13" value="" style="html=1;verticalAlign=bottom;endArrow=open;dashed=1;endSize=8;exitX=0;exitY=0.95;strokeColor=#FF8000;fontFamily=Tahoma;fontSize=14;fontColor=#000066;" edge="1" source="2750c62718d928d1-11" target="2750c62718d928d1-1" parent="1">
          <mxGeometry relative="1" as="geometry">
            <mxPoint x="144" y="277" as="targetPoint" />
          </mxGeometry>
        </mxCell>
        <mxCell id="2750c62718d928d1-15" value="&lt;font style=&quot;font-size: 10px;&quot;&gt;addComment()&lt;/font&gt;" style="html=1;verticalAlign=bottom;endArrow=block;entryX=1;entryY=0;strokeColor=#FF8000;fontFamily=Tahoma;fontSize=10;fontColor=#000066;" edge="1" source="2750c62718d928d1-17" target="2750c62718d928d1-14" parent="1">
          <mxGeometry relative="1" as="geometry">
            <mxPoint x="164" y="221" as="sourcePoint" />
          </mxGeometry>
        </mxCell>
        <mxCell id="2750c62718d928d1-16" value="Comment" style="html=1;verticalAlign=bottom;endArrow=open;dashed=1;endSize=8;exitX=1;exitY=0.95;strokeColor=#FF8000;fontFamily=Tahoma;fontSize=10;fontColor=#000066;" edge="1" source="2750c62718d928d1-14" target="2750c62718d928d1-17" parent="1">
          <mxGeometry relative="1" as="geometry">
            <mxPoint x="164" y="278" as="targetPoint" />
          </mxGeometry>
        </mxCell>
        <mxCell id="2750c62718d928d1-21" value="saveCheckin(Habit.HabitHistory)" style="html=1;verticalAlign=bottom;endArrow=block;entryX=0;entryY=0;strokeColor=#FF8000;fontFamily=Tahoma;fontSize=10;fontColor=#000066;" edge="1" target="2750c62718d928d1-20" parent="1">
          <mxGeometry relative="1" as="geometry">
            <mxPoint x="224" y="343" as="sourcePoint" />
          </mxGeometry>
        </mxCell>
        <mxCell id="2750c62718d928d1-22" value="" style="html=1;verticalAlign=bottom;endArrow=open;dashed=1;endSize=8;exitX=0;exitY=0.95;strokeColor=#FF8000;fontFamily=Tahoma;fontSize=10;fontColor=#000066;" edge="1" source="2750c62718d928d1-20" parent="1">
          <mxGeometry relative="1" as="geometry">
            <mxPoint x="224" y="361" as="targetPoint" />
          </mxGeometry>
        </mxCell>
        <mxCell id="2750c62718d928d1-24" value="checkinPushNotification(UserID,Habit.HabitHistory.Checkin)" style="html=1;verticalAlign=bottom;endArrow=block;entryX=0;entryY=0;strokeColor=#FF8000;fontFamily=Tahoma;fontSize=10;fontColor=#000066;" edge="1" target="2750c62718d928d1-23" parent="1">
          <mxGeometry relative="1" as="geometry">
            <mxPoint x="224" y="425" as="sourcePoint" />
          </mxGeometry>
        </mxCell>
        <mxCell id="2750c62718d928d1-25" value="" style="html=1;verticalAlign=bottom;endArrow=open;dashed=1;endSize=8;exitX=0;exitY=0.95;strokeColor=#FF8000;fontFamily=Tahoma;fontSize=10;fontColor=#000066;" edge="1" source="2750c62718d928d1-23" parent="1">
          <mxGeometry relative="1" as="geometry">
            <mxPoint x="224" y="435" as="targetPoint" />
          </mxGeometry>
        </mxCell>
        <mxCell id="2750c62718d928d1-26" value="opt" style="shape=umlFrame;whiteSpace=wrap;html=1;strokeColor=#000066;fillColor=#FF8000;fontFamily=Tahoma;fontSize=10;fontColor=#000066;align=center;width=40;height=16;" vertex="1" parent="1">
          <mxGeometry x="90" y="235" width="150" height="56" as="geometry" />
        </mxCell>
        <mxCell id="2750c62718d928d1-27" value="Comment == yes" style="text;html=1;resizable=0;points=[];autosize=1;align=left;verticalAlign=top;spacingTop=-4;fontSize=10;fontFamily=Tahoma;fontColor=#000066;" vertex="1" parent="1">
          <mxGeometry x="130" y="235" width="90" height="10" as="geometry" />
        </mxCell>
        <mxCell id="2750c62718d928d1-29" value="coach != NULL" style="text;html=1;resizable=0;points=[];autosize=1;align=left;verticalAlign=top;spacingTop=-4;fontSize=10;fontFamily=Tahoma;fontColor=#000066;" vertex="1" parent="1">
          <mxGeometry x="260" y="393" width="80" height="10" as="geometry" />
        </mxCell>
        <mxCell id="2750c62718d928d1-32" value="" style="endArrow=none;dashed=1;html=1;strokeColor=#000066;fontFamily=Tahoma;fontSize=10;fontColor=#000066;entryX=1;entryY=0.429;entryPerimeter=0;exitX=0.004;exitY=0.436;exitPerimeter=0;" edge="1" source="2750c62718d928d1-30" target="2750c62718d928d1-30" parent="1">
          <mxGeometry width="50" height="50" relative="1" as="geometry">
            <mxPoint x="80" y="651" as="sourcePoint" />
            <mxPoint x="130" y="601" as="targetPoint" />
          </mxGeometry>
        </mxCell>
        <mxCell id="2750c62718d928d1-30" value="par" style="shape=umlFrame;whiteSpace=wrap;html=1;strokeColor=#000066;fillColor=#FF8000;fontFamily=Tahoma;fontSize=10;fontColor=#000066;align=center;width=40;height=20;" vertex="1" parent="1">
          <mxGeometry x="170" y="319" width="450" height="140" as="geometry" />
        </mxCell>
        <mxCell id="2750c62718d928d1-28" value="opt" style="shape=umlFrame;whiteSpace=wrap;html=1;strokeColor=#000066;fillColor=#FF8000;fontFamily=Tahoma;fontSize=10;fontColor=#000066;align=center;width=50;height=20;" vertex="1" parent="1">
          <mxGeometry x="210" y="393" width="400" height="53" as="geometry" />
        </mxCell>
      </root>
    </mxGraphModel>
  </diagram>
  <diagram id="593f647c-4257-aa96-8231-70a0b84ccef8" name="Lifelines template">
    <mxGraphModel pageWidth="850" pageHeight="1100" fold="1" pageScale="1" math="0" shadow="0">
      <root>
        <mxCell id="0" />
        <mxCell id="1" parent="0" />
        <mxCell id="6f63ef780fc93045-1" value="" style="shape=umlLifeline;participant=umlActor;perimeter=lifelinePerimeter;whiteSpace=wrap;html=1;container=1;collapsible=0;recursiveResize=0;verticalAlign=top;spacingTop=36;labelBackgroundColor=#ffffff;outlineConnect=0;strokeColor=#000066;fillColor=#FF8000;fontFamily=Tahoma;fontSize=14;fontColor=#000066;" vertex="1" parent="1">
          <mxGeometry x="70" y="51" width="20" height="829" as="geometry" />
        </mxCell>
        <mxCell id="6f63ef780fc93045-4" value="User: Person" style="text;html=1;resizable=0;points=[];autosize=1;align=center;verticalAlign=top;spacingTop=-4;fontSize=14;fontFamily=Tahoma;fontColor=#000066;" vertex="1" parent="1">
          <mxGeometry x="43" y="16" width="90" height="20" as="geometry" />
        </mxCell>
        <mxCell id="6f63ef780fc93045-5" value="" style="shape=umlLifeline;participant=umlControl;perimeter=lifelinePerimeter;whiteSpace=wrap;html=1;container=1;collapsible=0;recursiveResize=0;verticalAlign=top;spacingTop=36;labelBackgroundColor=#ffffff;outlineConnect=0;strokeColor=#000066;fillColor=#FF8000;fontFamily=Tahoma;fontSize=14;fontColor=#000066;" vertex="1" parent="1">
          <mxGeometry x="180" y="47" width="40" height="833" as="geometry" />
        </mxCell>
        <mxCell id="6f63ef780fc93045-15" value="&lt;div style=&quot;text-align: center&quot;&gt;&lt;span&gt;Habit Tracker&amp;nbsp;&lt;/span&gt;&lt;/div&gt;&lt;div style=&quot;text-align: center&quot;&gt;app UI&lt;/div&gt;" style="text;html=1;resizable=0;points=[];autosize=1;align=left;verticalAlign=top;spacingTop=-4;fontSize=14;fontFamily=Tahoma;fontColor=#000066;" vertex="1" parent="1">
          <mxGeometry x="156" y="10" width="100" height="40" as="geometry" />
        </mxCell>
        <mxCell id="6f63ef780fc93045-16" value="" style="shape=umlLifeline;participant=umlEntity;perimeter=lifelinePerimeter;whiteSpace=wrap;html=1;container=1;collapsible=0;recursiveResize=0;verticalAlign=top;spacingTop=36;labelBackgroundColor=#ffffff;outlineConnect=0;fontFamily=Tahoma;fontSize=14;fontColor=#000066;align=center;strokeColor=#000066;fillColor=#FF8000;" vertex="1" parent="1">
          <mxGeometry x="455" y="50" width="45" height="830" as="geometry" />
        </mxCell>
        <mxCell id="6f63ef780fc93045-19" value="Authentication&amp;nbsp;&lt;div&gt;Service&lt;/div&gt;" style="text;html=1;resizable=0;points=[];autosize=1;align=center;verticalAlign=top;spacingTop=-4;fontSize=14;fontFamily=Tahoma;fontColor=#000066;" vertex="1" parent="1">
          <mxGeometry x="422" y="10" width="110" height="40" as="geometry" />
        </mxCell>
        <mxCell id="6f63ef780fc93045-20" value="" style="shape=umlLifeline;participant=umlBoundary;perimeter=lifelinePerimeter;whiteSpace=wrap;html=1;container=1;collapsible=0;recursiveResize=0;verticalAlign=top;spacingTop=36;labelBackgroundColor=#ffffff;outlineConnect=0;fontFamily=Tahoma;fontSize=14;fontColor=#000066;align=center;strokeColor=#000066;fillColor=#FF8000;" vertex="1" parent="1">
          <mxGeometry x="330" y="49" width="50" height="830" as="geometry" />
        </mxCell>
        <mxCell id="6f63ef780fc93045-35" value="&lt;div style=&quot;text-align: center&quot;&gt;Data store&lt;/div&gt;" style="text;html=1;resizable=0;points=[];autosize=1;align=center;verticalAlign=top;spacingTop=-4;fontSize=14;fontFamily=Tahoma;fontColor=#000066;" vertex="1" parent="1">
          <mxGeometry x="313" y="10" width="80" height="20" as="geometry" />
        </mxCell>
        <mxCell id="6f63ef780fc93045-36" value="" style="shape=umlLifeline;participant=umlActor;perimeter=lifelinePerimeter;whiteSpace=wrap;html=1;container=1;collapsible=0;recursiveResize=0;verticalAlign=top;spacingTop=36;labelBackgroundColor=#ffffff;outlineConnect=0;strokeColor=#000066;fillColor=#FF8000;fontFamily=Tahoma;fontSize=14;fontColor=#000066;align=center;" vertex="1" parent="1">
          <mxGeometry x="578" y="51" width="20" height="819" as="geometry" />
        </mxCell>
        <mxCell id="6f63ef780fc93045-37" value="&lt;div style=&quot;text-align: center&quot;&gt;&lt;span&gt;Coach: Person&lt;/span&gt;&lt;/div&gt;" style="text;html=1;resizable=0;points=[];autosize=1;align=left;verticalAlign=top;spacingTop=-4;fontSize=14;fontFamily=Tahoma;fontColor=#000066;" vertex="1" parent="1">
          <mxGeometry x="538" y="10" width="100" height="20" as="geometry" />
        </mxCell>
      </root>
    </mxGraphModel>
  </diagram>
</mxfile>
